HIERARCHY
ROOT hip
{
  OFFSET 0.00112043 5.09927 -9.65472
  CHANNELS 6 Xposition Yposition Zposition Zrotation Xrotation Yrotation
  JOINT abdomen
  {
    OFFSET 0 -1.186 -1.5018
    CHANNELS 3 Zrotation Xrotation Yrotation
    JOINT abdomen2
    {
      OFFSET 0 9.964 0.2134
      CHANNELS 3 Zrotation Xrotation Yrotation
      JOINT chest
      {
        OFFSET 0 13.134 -3.2573
        CHANNELS 3 Zrotation Xrotation Yrotation
        JOINT neck
        {
          OFFSET 0 20.686 -1.6905
          CHANNELS 3 Zrotation Xrotation Yrotation
          JOINT head
          {
            OFFSET 0 7.238 -0.1237
            CHANNELS 3 Zrotation Xrotation Yrotation
            End Site
            {
              OFFSET 0 0 0
            }
          }
        }
        JOINT lCollar
        {
          OFFSET 1.7069 20.075 5.0056
          CHANNELS 3 Zrotation Xrotation Yrotation
          JOINT lShldr
          {
            OFFSET 13.6458 -0.047 -4.849
            CHANNELS 3 Zrotation Xrotation Yrotation
            JOINT lForeArm
            {
              OFFSET 28.3255 -0.9759 2.2888
              CHANNELS 3 Zrotation Xrotation Yrotation
              JOINT lHand
              {
                OFFSET 22.1583 -0.53 10.8316
                CHANNELS 3 Zrotation Xrotation Yrotation
                JOINT lThumb1
                {
                  OFFSET 0.786 0.112 2.5817
                  CHANNELS 3 Zrotation Xrotation Yrotation
                  JOINT lThumb2
                  {
                    OFFSET 0.3601 -0.878 4.2331
                    CHANNELS 3 Zrotation Xrotation Yrotation
                    JOINT lThumb2_End
                    {
                      OFFSET 1.8127 -1.216 2.2227
                      CHANNELS 3 Zrotation Xrotation Yrotation
                      End Site
                      {
                        OFFSET 0.0181 -0.0122 0.0222
                      }
                    }
                  }
                }
                JOINT lCarpal1
                {
                  OFFSET 0.9571 1.114 1.7695
                  CHANNELS 3 Zrotation Xrotation Yrotation
                  JOINT lIndex1
                  {
                    OFFSET 4.1246 0.487 4.1451
                    CHANNELS 3 Zrotation Xrotation Yrotation
                    JOINT lIndex2
                    {
                      OFFSET 3.4052 -1.454 2.7682
                      CHANNELS 3 Zrotation Xrotation Yrotation
                      JOINT lIndex2_End
                      {
                        OFFSET 1.4531 -1.795 1.2713
                        CHANNELS 3 Zrotation Xrotation Yrotation
                        End Site
                        {
                          OFFSET 0.0145 -0.0179 0.0127
                        }
                      }
                    }
                  }
                  JOINT lMid1
                  {
                    OFFSET 5.6954 0.21 2.1184
                    CHANNELS 3 Zrotation Xrotation Yrotation
                    JOINT lMid2
                    {
                      OFFSET 3.9766 -1.54 2.3863
                      CHANNELS 3 Zrotation Xrotation Yrotation
                      JOINT lMid2_End
                      {
                        OFFSET 1.4042 -1.926 1.125
                        CHANNELS 3 Zrotation Xrotation Yrotation
                        End Site
                        {
                          OFFSET 0.014 -0.0193 0.0113
                        }
                      }
                    }
                  }
                }
                JOINT lCarpal2
                {
                  OFFSET 2.0956 0.66 -0.3894
                  CHANNELS 3 Zrotation Xrotation Yrotation
                  JOINT lRing1
                  {
                    OFFSET 5.0395 -0.09 2.4971
                    CHANNELS 3 Zrotation Xrotation Yrotation
                    JOINT lRing2
                    {
                      OFFSET 3.7921 -1.552 1.4806
                      CHANNELS 3 Zrotation Xrotation Yrotation
                      JOINT lRing2_End
                      {
                        OFFSET 1.4655 -1.808 0.9609
                        CHANNELS 3 Zrotation Xrotation Yrotation
                        End Site
                        {
                          OFFSET 0.0147 -0.0181 0.0096
                        }
                      }
                    }
                  }
                  JOINT lPinky1
                  {
                    OFFSET 4.9141 -1.269 0.3591
                    CHANNELS 3 Zrotation Xrotation Yrotation
                    JOINT lPinky2
                    {
                      OFFSET 3.1477 -1.685 0.8462
                      CHANNELS 3 Zrotation Xrotation Yrotation
                      JOINT lPinky2_End
                      {
                        OFFSET 0.8055 -1.585 0.7955
                        CHANNELS 3 Zrotation Xrotation Yrotation
                        End Site
                        {
                          OFFSET 0.0081 -0.0158 0.008
                        }
                      }
                    }
                  }
                }
              }
            }
          }
        }
        JOINT rCollar
        {
          OFFSET -1.7069 20.075 5.0056
          CHANNELS 3 Zrotation Xrotation Yrotation
          JOINT rShldr
          {
            OFFSET -13.6458 -0.047 -4.849
            CHANNELS 3 Zrotation Xrotation Yrotation
            JOINT rForeArm
            {
              OFFSET -28.3255 -0.9759 2.2888
              CHANNELS 3 Zrotation Xrotation Yrotation
              JOINT rHand
              {
                OFFSET -22.1583 -0.53 10.8316
                CHANNELS 3 Zrotation Xrotation Yrotation
                JOINT rThumb1
                {
                  OFFSET -0.786 0.112 2.5817
                  CHANNELS 3 Zrotation Xrotation Yrotation
                  JOINT rThumb2
                  {
                    OFFSET -0.3601 -0.878 4.2331
                    CHANNELS 3 Zrotation Xrotation Yrotation
                    JOINT rThumb2_End
                    {
                      OFFSET -1.8127 -1.216 2.2227
                      CHANNELS 3 Zrotation Xrotation Yrotation
                      End Site
                      {
                        OFFSET -0.0181 -0.0122 0.0222
                      }
                    }
                  }
                }
                JOINT rCarpal1
                {
                  OFFSET -0.9571 1.114 1.7695
                  CHANNELS 3 Zrotation Xrotation Yrotation
                  JOINT rIndex1
                  {
                    OFFSET -4.1246 0.487 4.1451
                    CHANNELS 3 Zrotation Xrotation Yrotation
                    JOINT rIndex2
                    {
                      OFFSET -3.4052 -1.454 2.7682
                      CHANNELS 3 Zrotation Xrotation Yrotation
                      JOINT rIndex2_End
                      {
                        OFFSET -1.4531 -1.795 1.2713
                        CHANNELS 3 Zrotation Xrotation Yrotation
                        End Site
                        {
                          OFFSET -0.0145 -0.018 0.0127
                        }
                      }
                    }
                  }
                  JOINT rMid1
                  {
                    OFFSET -5.6954 0.21 2.1184
                    CHANNELS 3 Zrotation Xrotation Yrotation
                    JOINT rMid2
                    {
                      OFFSET -3.9766 -1.54 2.3863
                      CHANNELS 3 Zrotation Xrotation Yrotation
                      JOINT rMid2_End
                      {
                        OFFSET -1.4042 -1.926 1.125
                        CHANNELS 3 Zrotation Xrotation Yrotation
                        End Site
                        {
                          OFFSET -0.014 -0.0193 0.0113
                        }
                      }
                    }
                  }
                }
                JOINT rCarpal2
                {
                  OFFSET -2.0956 0.66 -0.3894
                  CHANNELS 3 Zrotation Xrotation Yrotation
                  JOINT rRing1
                  {
                    OFFSET -5.0395 -0.09 2.4971
                    CHANNELS 3 Zrotation Xrotation Yrotation
                    JOINT rRing2
                    {
                      OFFSET -3.7921 -1.552 1.4806
                      CHANNELS 3 Zrotation Xrotation Yrotation
                      JOINT rRing2_End
                      {
                        OFFSET -1.4655 -1.808 0.9609
                        CHANNELS 3 Zrotation Xrotation Yrotation
                        End Site
                        {
                          OFFSET -0.0147 -0.0181 0.0096
                        }
                      }
                    }
                  }
                  JOINT rPinky1
                  {
                    OFFSET -4.9141 -1.269 0.3592
                    CHANNELS 3 Zrotation Xrotation Yrotation
                    JOINT rPinky2
                    {
                      OFFSET -3.1477 -1.685 0.8462
                      CHANNELS 3 Zrotation Xrotation Yrotation
                      JOINT rPinky2_End
                      {
                        OFFSET -0.8055 -1.585 0.7955
                        CHANNELS 3 Zrotation Xrotation Yrotation
                        End Site
                        {
                          OFFSET -0.0081 -0.0158 0.008
                        }
                      }
                    }
                  }
                }
              }
            }
          }
        }
      }
    }
  }
  JOINT lThigh
  {
    OFFSET 8.367 -8.2066 0.5982
    CHANNELS 3 Zrotation Xrotation Yrotation
    JOINT lShin
    {
      OFFSET 2.1923 -43.463 -0.4932
      CHANNELS 3 Zrotation Xrotation Yrotation
      JOINT lFoot
      {
        OFFSET 0.7333 -45.8593 -2.6451
        CHANNELS 3 Zrotation Xrotation Yrotation
        End Site
        {
          OFFSET 2.6618 -4.2699 12.3931
        }
      }
    }
  }
  JOINT rThigh
  {
    OFFSET -8.367 -8.2066 0.5982
    CHANNELS 3 Zrotation Xrotation Yrotation
    JOINT rShin
    {
      OFFSET -2.1923 -43.463 -0.4931
      CHANNELS 3 Zrotation Xrotation Yrotation
      JOINT rFoot
      {
        OFFSET -0.7333 -45.8593 -2.6451
        CHANNELS 3 Zrotation Xrotation Yrotation
        End Site
        {
          OFFSET -2.6618 -4.2699 12.3931
        }
      }
    }
  }
}
MOTION
Frames:	6
Frame Time:	0.0333333
0 91.7903 2.51682 0 0 -0 0 0 -0 0 0 -0 0 0 -0 0 0 -0 -0 0 0.00880797 0 0 -0 1.66051 0.0835086 5.75766 -0.0175111 0.895433 15.7816 7.95139e-016 -1.98785e-016 -0 5.46658e-016 -3.97569e-016 -0 5.96354e-016 0 -0 3.97569e-016 1.98785e-016 9.54166e-015 1.49089e-016 -3.97569e-016 -0 6.4605e-016 0 3.18055e-015 5.96354e-016 0 3.18055e-015 8.94531e-016 -1.98785e-016 6.36111e-015 6.4605e-016 0 3.18055e-015 5.96354e-016 0 3.18055e-015 8.94531e-016 -1.98785e-016 6.36111e-015 1.49089e-016 -3.97569e-016 -0 6.4605e-016 0 3.18055e-015 5.96354e-016 0 3.18055e-015 8.94531e-016 -1.98785e-016 6.36111e-015 6.4605e-016 0 3.18055e-015 5.96354e-016 0 3.18055e-015 8.94531e-016 -1.98785e-016 6.36111e-015 0 0 -0 -1.4496 0.0636048 -5.0245 -1.74811 1.20616 -16.8394 -1.19271e-015 1.98785e-016 -3.18055e-015 -3.97569e-016 1.98785e-016 -3.18055e-015 -2.98177e-016 1.98785e-016 -3.18055e-015 -2.98177e-016 3.97569e-016 -0 4.96962e-016 0 -6.36111e-015 -9.93923e-017 3.97569e-016 -0 -8.94531e-016 5.96354e-016 -0 -3.97569e-016 3.97569e-016 -0 -9.93923e-017 3.97569e-016 -0 -8.94531e-016 5.96354e-016 -0 -3.97569e-016 3.97569e-016 -0 4.96962e-016 0 -6.36111e-015 -9.93923e-017 3.97569e-016 -0 -8.94531e-016 5.96354e-016 -0 -3.97569e-016 3.97569e-016 -0 -9.93923e-017 3.97569e-016 -0 -8.94531e-016 5.96354e-016 -0 -3.97569e-016 3.97569e-016 -0 -4.66111 -0.998717 0.12318 0.00986924 1.54847 0.176523 4.65186 -0.572283 -0.254274 4.66111 -0.998765 -0.123176 -0.00986867 1.54869 -0.176537 -4.65186 -0.572453 0.25427 
-0.133182 89.9636 2.54987 -5.26763e-015 13.997 180 -0.447489 17.6471 -0.5434 -0.768109 35.2974 -1.01163 -0.768109 35.2975 -1.01163 5.8746e-005 -24.3034 2.58449e-005 0.320065 -0.568284 0.00880747 -27.5275 -24.3512 7.18906 -43.414 21.9737 -17.0281 -13.478 27.1897 -78.2498 21.5615 1.61708 -5.6376 -4.73466e-007 2.51606e-006 -1.96394e-006 9.69085e-006 5.27019e-006 -6.41184e-006 -1.19003e-006 -2.43963e-007 3.7979e-008 1.59028e-015 0 3.18055e-015 -4.73466e-007 2.51606e-006 -1.96394e-006 9.69085e-006 5.27019e-006 -6.41184e-006 -1.19003e-006 -2.43963e-007 3.7979e-008 -4.73466e-007 2.51606e-006 -1.96394e-006 9.69085e-006 5.27019e-006 -6.41184e-006 -1.19003e-006 -2.43963e-007 3.7979e-008 1.59028e-015 0 3.18055e-015 -4.73466e-007 2.51606e-006 -1.96394e-006 9.69085e-006 5.27019e-006 -6.41184e-006 -1.19003e-006 -2.43963e-007 3.7979e-008 -4.73466e-007 2.51606e-006 -1.96394e-006 9.69085e-006 5.27019e-006 -6.41184e-006 -1.19003e-006 -2.43963e-007 3.7979e-008 -1.04286 -19.4756 11.6635 38.5625 -16.4384 58.8732 7.3898 -12.2758 -11.4119 30.4876 20.5208 14.6007 1.16344e-006 2.04797e-006 -2.37073e-006 -1.16344e-006 -2.04797e-006 2.37073e-006 2.38542e-015 -9.54166e-015 -0 4.41391e-032 -3.18055e-015 7.95139e-016 1.16344e-006 2.04797e-006 -2.37073e-006 -1.16344e-006 -2.04797e-006 2.37073e-006 7.95139e-016 -9.54166e-015 -0 1.16344e-006 2.04797e-006 -2.37073e-006 -1.16344e-006 -2.04797e-006 2.37073e-006 7.95139e-016 -9.54166e-015 -0 4.41391e-032 -3.18055e-015 7.95139e-016 1.16344e-006 2.04797e-006 -2.37073e-006 -1.16344e-006 -2.04797e-006 2.37073e-006 7.95139e-016 -9.54166e-015 -0 1.16344e-006 2.04797e-006 -2.37073e-006 -1.16344e-006 -2.04797e-006 2.37073e-006 7.95139e-016 -9.54166e-015 -0 85.0289 -54.9752 100.56 153.999 80.0492 -152.369 4.9042 -6.76874 6.44129 -86.2545 -49.7774 -100.165 -158.329 76.3532 156.245 -3.01206 -9.60473 -0.977956 
-0.122612 89.2284 2.75538 -0.0694975 14.8072 -179.951 -0.442838 17.2065 -0.550291 -0.758266 34.4163 -1.02868 -0.758265 34.4163 -1.02868 -2.1737e-005 -24.9135 -1.2449e-005 0.320126 -0.901545 0.00880971 -27.6154 -23.8158 7.43673 -43.414 21.9737 -17.028 -13.3277 27.1125 -76.8315 21.5137 0.481613 -5.16723 1.59028e-015 -3.18055e-015 1.59028e-014 -1.12585e-006 1.97189e-006 2.50348e-006 3.18055e-015 1.59028e-015 3.18055e-015 3.18055e-015 -1.59028e-015 6.36111e-015 -3.18055e-015 -1.59028e-015 1.59028e-014 -1.12585e-006 1.97189e-006 2.50348e-006 -1.59028e-015 -3.18055e-015 -6.36111e-015 -3.18055e-015 -1.59028e-015 1.59028e-014 -1.12585e-006 1.97189e-006 2.50348e-006 -1.59028e-015 -3.18055e-015 -6.36111e-015 3.18055e-015 -1.59028e-015 6.36111e-015 -3.18055e-015 -1.59028e-015 1.59028e-014 -1.12585e-006 1.97189e-006 2.50348e-006 -1.59028e-015 -3.18055e-015 -6.36111e-015 -3.18055e-015 -1.59028e-015 1.59028e-014 -1.12585e-006 1.97189e-006 2.50348e-006 -1.59028e-015 -3.18055e-015 -6.36111e-015 -0.79172 -18.6702 11.3605 38.6603 -16.2445 59.0467 7.38982 -12.2758 -11.4119 30.7718 20.7641 13.9186 -5.38023e-006 1.00006e-006 -3.29194e-007 -7.95139e-016 6.36111e-015 -3.97569e-015 -6.76021e-007 2.35211e-006 2.06053e-006 7.95139e-016 0 -7.95139e-016 -5.38023e-006 1.00006e-006 -3.29194e-007 1.59028e-015 6.36111e-015 -7.95139e-016 -6.76021e-007 2.35211e-006 2.06053e-006 -5.38023e-006 1.00006e-006 -3.29194e-007 1.59028e-015 6.36111e-015 -7.95139e-016 -6.76021e-007 2.35211e-006 2.06053e-006 7.95139e-016 0 -7.95139e-016 -5.38023e-006 1.00006e-006 -3.29194e-007 1.59028e-015 6.36111e-015 -7.95139e-016 -6.76021e-007 2.35211e-006 2.06053e-006 -5.38023e-006 1.00006e-006 -3.29194e-007 1.59028e-015 6.36111e-015 -7.95139e-016 -6.76021e-007 2.35211e-006 2.06053e-006 87.6852 -55.1531 103.291 155.171 79.5188 -153.481 4.95309 -6.46111 6.69341 -88.6018 -50.0527 -102.495 -159.052 75.7732 156.897 -2.96185 -9.3187 -1.32341 
-0.10852 88.4759 2.99118 -0.160216 15.8477 -179.886 -0.438324 16.7654 -0.557085 -0.749015 33.5339 -1.0453 -0.749016 33.5339 -1.0453 2.11573e-005 -25.5242 8.36955e-006 0.320177 -1.23485 0.00880835 -27.7056 -23.2805 7.68441 -43.414 21.9737 -17.028 -13.175 27.0383 -75.41 21.4752 -0.656326 -4.69692 -1.59028e-015 -4.77083e-015 3.18055e-015 -4.77083e-015 -3.18055e-015 -9.54166e-015 -3.18055e-015 -4.77083e-015 -1.59028e-014 4.77083e-015 -1.59028e-015 3.18055e-015 -4.77083e-015 -3.18055e-015 -9.54166e-015 -1.11319e-014 0 -1.27222e-014 -3.18055e-015 -3.18055e-015 -6.36111e-015 -4.77083e-015 -3.18055e-015 -9.54166e-015 -1.11319e-014 0 -1.27222e-014 -3.18055e-015 -3.18055e-015 -6.36111e-015 4.77083e-015 -1.59028e-015 3.18055e-015 -4.77083e-015 -3.18055e-015 -9.54166e-015 -1.11319e-014 0 -1.27222e-014 -3.18055e-015 -3.18055e-015 -6.36111e-015 -4.77083e-015 -3.18055e-015 -9.54166e-015 -1.11319e-014 0 -1.27222e-014 -3.18055e-015 -3.18055e-015 -6.36111e-015 -0.536997 -17.8652 11.0549 38.7573 -16.0503 59.2195 7.38979 -12.2758 -11.4119 31.0597 21.0045 13.2336 -6.15513e-007 -1.03668e-006 1.16552e-006 6.15512e-007 1.03668e-006 -1.16552e-006 -6.15513e-007 -1.03668e-006 1.16552e-006 -3.18055e-015 1.27222e-014 -4.77083e-015 -6.15513e-007 -1.03668e-006 1.16552e-006 6.15512e-007 1.03668e-006 -1.16552e-006 -6.15513e-007 -1.03668e-006 1.16552e-006 -6.15513e-007 -1.03668e-006 1.16552e-006 6.15512e-007 1.03668e-006 -1.16552e-006 -6.15513e-007 -1.03668e-006 1.16552e-006 -3.18055e-015 1.27222e-014 -4.77083e-015 -6.15513e-007 -1.03668e-006 1.16552e-006 6.15512e-007 1.03668e-006 -1.16552e-006 -6.15513e-007 -1.03668e-006 1.16552e-006 -6.15513e-007 -1.03668e-006 1.16552e-006 6.15512e-007 1.03668e-006 -1.16552e-006 -6.15513e-007 -1.03668e-006 1.16552e-006 90.3598 -55.2579 106.04 156.235 78.9827 -154.486 4.99732 -6.161 6.94417 -90.9712 -50.2656 -104.846 -159.72 75.1907 157.497 -2.90599 -9.04064 -1.66729 
-0.08926 87.6973 3.27311 -0.283635 17.2328 -179.797 -0.433945 16.3236 -0.563786 -0.740335 32.6503 -1.06151 -0.740336 32.6503 -1.06151 2.40289e-006 -26.135 1.26155e-006 0.320228 -1.56821 0.00881092 -27.7979 -22.7454 7.93212 -43.414 21.9736 -17.028 -13.0201 26.9674 -73.9857 21.4459 -1.79641 -4.2264 3.18055e-015 -1.59028e-015 6.36111e-015 0 0 -3.18055e-015 -0 -3.18055e-015 -0 1.76556e-031 -1.59028e-015 6.36111e-015 -3.18055e-015 -4.77083e-015 9.54166e-015 6.36111e-015 -3.18055e-015 -6.36111e-015 6.36111e-015 -3.18055e-015 6.36111e-015 -3.18055e-015 -4.77083e-015 9.54166e-015 6.36111e-015 -3.18055e-015 -6.36111e-015 6.36111e-015 -3.18055e-015 6.36111e-015 1.76556e-031 -1.59028e-015 6.36111e-015 -3.18055e-015 -4.77083e-015 9.54166e-015 6.36111e-015 -3.18055e-015 -6.36111e-015 6.36111e-015 -3.18055e-015 6.36111e-015 -3.18055e-015 -4.77083e-015 9.54166e-015 6.36111e-015 -3.18055e-015 -6.36111e-015 6.36111e-015 -3.18055e-015 6.36111e-015 -0.278674 -17.0607 10.7466 38.8536 -15.8559 59.3919 7.38979 -12.2758 -11.4119 31.3513 21.2417 12.5459 4.17326e-006 -2.54854e-006 1.21096e-006 1.59028e-015 -6.36111e-015 -1.59028e-015 -0 0 3.18055e-015 -3.18055e-015 -3.18055e-015 -1.59028e-015 4.17326e-006 -2.54854e-006 1.21096e-006 1.59028e-015 -6.36111e-015 -0 1.59028e-015 -3.18055e-015 -0 4.17326e-006 -2.54854e-006 1.21096e-006 1.59028e-015 -6.36111e-015 -0 1.59028e-015 -3.18055e-015 -0 -3.18055e-015 -3.18055e-015 -1.59028e-015 4.17326e-006 -2.54854e-006 1.21096e-006 1.59028e-015 -6.36111e-015 -0 1.59028e-015 -3.18055e-015 -0 4.17326e-006 -2.54854e-006 1.21096e-006 1.59028e-015 -6.36111e-015 -0 1.59028e-015 -3.18055e-015 -0 93.0358 -55.2882 108.789 157.208 78.4404 -155.404 5.0358 -5.87205 7.19318 -93.3484 -50.4144 -107.204 -160.34 74.6057 158.052 -2.84281 -8.77437 -2.00876 
-0.0618725 86.8759 3.62932 -0.461493 19.1667 -179.665 -0.429701 15.8813 -0.570391 -0.732209 31.7658 -1.07735 -0.73221 31.7658 -1.07735 1.09664e-005 -26.7463 8.34386e-006 0.32028 -1.90159 0.00881338 -27.8924 -22.2105 8.17988 -43.414 21.9736 -17.028 -12.8629 26.8998 -72.5592 21.426 -2.93828 -3.75542 6.36111e-015 -1.59028e-015 -6.36111e-015 3.18055e-015 1.59028e-015 3.18055e-015 3.18055e-015 3.18055e-015 3.18055e-015 6.36111e-015 -1.59028e-015 -6.36111e-015 -1.59028e-015 0 6.36111e-015 1.59028e-015 0 -6.36111e-015 7.95139e-015 1.59028e-015 -6.36111e-015 -1.59028e-015 0 6.36111e-015 1.59028e-015 0 -6.36111e-015 7.95139e-015 1.59028e-015 -6.36111e-015 6.36111e-015 -1.59028e-015 -6.36111e-015 -1.59028e-015 0 6.36111e-015 1.59028e-015 0 -6.36111e-015 7.95139e-015 1.59028e-015 -6.36111e-015 -1.59028e-015 0 6.36111e-015 1.59028e-015 0 -6.36111e-015 7.95139e-015 1.59028e-015 -6.36111e-015 -0.016715 -16.257 10.4356 38.9492 -15.6611 59.5638 7.3898 -12.2758 -11.4119 31.6465 21.4757 11.8555 -6.64352e-007 -1.05025e-006 1.13752e-006 4.41391e-031 -1.59028e-014 1.59028e-015 -0 -6.36111e-015 -0 0 6.36111e-015 -0 -6.64352e-007 -1.05025e-006 1.13752e-006 4.41391e-031 -1.59028e-014 1.59028e-015 -0 -6.36111e-015 -0 -6.64352e-007 -1.05025e-006 1.13752e-006 4.41391e-031 -1.59028e-014 1.59028e-015 -0 -6.36111e-015 -0 0 6.36111e-015 -0 -6.64352e-007 -1.05025e-006 1.13752e-006 4.41391e-031 -1.59028e-014 1.59028e-015 -0 -6.36111e-015 -0 -6.64352e-007 -1.05025e-006 1.13752e-006 4.41391e-031 -1.59028e-014 1.59028e-015 -0 -6.36111e-015 -0 95.6907 -55.2438 111.515 158.104 77.8911 -156.248 5.06635 -5.60084 7.43962 -95.714 -50.498 -109.548 -160.916 74.0187 158.57 -2.7693 -8.52657 -2.34614 
